<mxfile host="65bd71144e">
    <diagram id="7v7VB8MzB02HO2_3NjoR" name="Page-1">
        <mxGraphModel dx="1178" dy="794" grid="1" gridSize="10" guides="1" tooltips="1" connect="1" arrows="1" fold="1" page="1" pageScale="1" pageWidth="1169" pageHeight="827" math="1" shadow="0">
            <root>
                <mxCell id="0"/>
                <mxCell id="1" parent="0"/>
                <mxCell id="124" value="" style="rounded=0;whiteSpace=wrap;html=1;" vertex="1" parent="1">
                    <mxGeometry x="50" y="50" width="1070" height="630" as="geometry"/>
                </mxCell>
                <mxCell id="83" style="edgeStyle=none;html=1;exitX=0.5;exitY=0;exitDx=0;exitDy=0;entryX=0.5;entryY=1;entryDx=0;entryDy=0;" edge="1" parent="1" source="2" target="81">
                    <mxGeometry relative="1" as="geometry"/>
                </mxCell>
                <mxCell id="2" value="&lt;font style=&quot;font-size: 14px;&quot;&gt;&lt;b&gt;MF User Vector&lt;/b&gt;&lt;/font&gt;" style="rounded=0;whiteSpace=wrap;html=1;labelBackgroundColor=none;fillColor=#dae8fc;strokeColor=#6c8ebf;" vertex="1" parent="1">
                    <mxGeometry x="63" y="430" width="120" height="30" as="geometry"/>
                </mxCell>
                <mxCell id="85" style="edgeStyle=none;html=1;exitX=0.5;exitY=0;exitDx=0;exitDy=0;entryX=0.5;entryY=1;entryDx=0;entryDy=0;" edge="1" parent="1" source="11" target="77">
                    <mxGeometry relative="1" as="geometry"/>
                </mxCell>
                <mxCell id="11" value="&lt;font style=&quot;font-size: 14px;&quot;&gt;&lt;b&gt;MLP User Vector&lt;/b&gt;&lt;/font&gt;" style="rounded=0;whiteSpace=wrap;html=1;labelBackgroundColor=none;fillColor=#dae8fc;strokeColor=#6c8ebf;" vertex="1" parent="1">
                    <mxGeometry x="253" y="430" width="120" height="30" as="geometry"/>
                </mxCell>
                <mxCell id="12" value="" style="group" vertex="1" connectable="0" parent="1">
                    <mxGeometry x="99" y="540" width="235" height="32" as="geometry"/>
                </mxCell>
                <mxCell id="4" value="0" style="rounded=0;whiteSpace=wrap;html=1;fontSize=14;" vertex="1" parent="12">
                    <mxGeometry y="1" width="30" height="30" as="geometry"/>
                </mxCell>
                <mxCell id="5" value="0" style="rounded=0;whiteSpace=wrap;html=1;fontSize=14;" vertex="1" parent="12">
                    <mxGeometry x="30" y="1" width="30" height="30" as="geometry"/>
                </mxCell>
                <mxCell id="6" value="0" style="rounded=0;whiteSpace=wrap;html=1;fontSize=14;" vertex="1" parent="12">
                    <mxGeometry x="60" y="1" width="30" height="30" as="geometry"/>
                </mxCell>
                <mxCell id="7" value="&lt;b&gt;&lt;font style=&quot;color: rgb(255, 255, 255);&quot;&gt;1&lt;/font&gt;&lt;/b&gt;" style="rounded=0;whiteSpace=wrap;html=1;fillColor=#1F3864;fontColor=#FFFFFF;fontSize=14;" vertex="1" parent="12">
                    <mxGeometry x="90" width="32" height="32" as="geometry"/>
                </mxCell>
                <mxCell id="8" value="0" style="rounded=0;whiteSpace=wrap;html=1;fontSize=14;" vertex="1" parent="12">
                    <mxGeometry x="122" y="1" width="30" height="30" as="geometry"/>
                </mxCell>
                <mxCell id="9" value="0" style="rounded=0;whiteSpace=wrap;html=1;fontSize=14;" vertex="1" parent="12">
                    <mxGeometry x="152" y="1" width="30" height="30" as="geometry"/>
                </mxCell>
                <mxCell id="10" value="...." style="rounded=0;whiteSpace=wrap;html=1;fontSize=14;" vertex="1" parent="12">
                    <mxGeometry x="182" y="1" width="53" height="30" as="geometry"/>
                </mxCell>
                <mxCell id="13" value="" style="group" vertex="1" connectable="0" parent="1">
                    <mxGeometry x="373" y="601" width="235" height="32" as="geometry"/>
                </mxCell>
                <mxCell id="14" value="0" style="rounded=0;whiteSpace=wrap;html=1;fontSize=14;" vertex="1" parent="13">
                    <mxGeometry y="1" width="30" height="30" as="geometry"/>
                </mxCell>
                <mxCell id="15" value="0" style="rounded=0;whiteSpace=wrap;html=1;fontSize=14;" vertex="1" parent="13">
                    <mxGeometry x="30" y="1" width="30" height="30" as="geometry"/>
                </mxCell>
                <mxCell id="16" value="0" style="rounded=0;whiteSpace=wrap;html=1;fontSize=14;" vertex="1" parent="13">
                    <mxGeometry x="60" y="1" width="30" height="30" as="geometry"/>
                </mxCell>
                <mxCell id="17" value="&lt;b&gt;&lt;font style=&quot;&quot;&gt;1&lt;/font&gt;&lt;/b&gt;" style="rounded=0;whiteSpace=wrap;html=1;fillColor=light-dark(#94c954, #abc0e6);fontColor=#000000;fontSize=14;" vertex="1" parent="13">
                    <mxGeometry x="90" width="32" height="32" as="geometry"/>
                </mxCell>
                <mxCell id="18" value="0" style="rounded=0;whiteSpace=wrap;html=1;fontSize=14;" vertex="1" parent="13">
                    <mxGeometry x="122" y="1" width="30" height="30" as="geometry"/>
                </mxCell>
                <mxCell id="19" value="0" style="rounded=0;whiteSpace=wrap;html=1;fontSize=14;" vertex="1" parent="13">
                    <mxGeometry x="152" y="1" width="30" height="30" as="geometry"/>
                </mxCell>
                <mxCell id="20" value="...." style="rounded=0;whiteSpace=wrap;html=1;fontSize=14;" vertex="1" parent="13">
                    <mxGeometry x="182" y="1" width="53" height="30" as="geometry"/>
                </mxCell>
                <mxCell id="84" style="edgeStyle=none;html=1;exitX=0.5;exitY=0;exitDx=0;exitDy=0;" edge="1" parent="1" source="30">
                    <mxGeometry relative="1" as="geometry">
                        <mxPoint x="323" y="300" as="targetPoint"/>
                    </mxGeometry>
                </mxCell>
                <mxCell id="30" value="&lt;font style=&quot;font-size: 14px;&quot;&gt;&lt;b&gt;MF Post Vector&lt;/b&gt;&lt;/font&gt;" style="rounded=0;whiteSpace=wrap;html=1;labelBackgroundColor=none;fillColor=#d5e8d4;strokeColor=#82b366;" vertex="1" parent="1">
                    <mxGeometry x="553" y="430" width="120" height="30" as="geometry"/>
                </mxCell>
                <mxCell id="86" style="edgeStyle=none;html=1;exitX=0.5;exitY=0;exitDx=0;exitDy=0;" edge="1" parent="1" source="31">
                    <mxGeometry relative="1" as="geometry">
                        <mxPoint x="753" y="360" as="targetPoint"/>
                    </mxGeometry>
                </mxCell>
                <mxCell id="31" value="&lt;font style=&quot;font-size: 14px;&quot;&gt;&lt;b&gt;MLP Post Vector&lt;/b&gt;&lt;/font&gt;" style="rounded=0;whiteSpace=wrap;html=1;labelBackgroundColor=none;fillColor=#d5e8d4;strokeColor=#82b366;" vertex="1" parent="1">
                    <mxGeometry x="803" y="430" width="120" height="30" as="geometry"/>
                </mxCell>
                <mxCell id="32" value="" style="group" vertex="1" connectable="0" parent="1">
                    <mxGeometry x="623" y="601" width="235" height="32" as="geometry"/>
                </mxCell>
                <mxCell id="33" value="0.4827.." style="rounded=0;whiteSpace=wrap;html=1;fontSize=14;" vertex="1" parent="32">
                    <mxGeometry y="1" width="60" height="30" as="geometry"/>
                </mxCell>
                <mxCell id="34" value="0.8915" style="rounded=0;whiteSpace=wrap;html=1;fontSize=14;" vertex="1" parent="32">
                    <mxGeometry x="60" y="1" width="60" height="30" as="geometry"/>
                </mxCell>
                <mxCell id="53" value="0.6023.." style="rounded=0;whiteSpace=wrap;html=1;fontSize=14;" vertex="1" parent="32">
                    <mxGeometry x="120" y="1" width="60" height="30" as="geometry"/>
                </mxCell>
                <mxCell id="39" value="...." style="rounded=0;whiteSpace=wrap;html=1;fontSize=14;" vertex="1" parent="32">
                    <mxGeometry x="180" y="1" width="53" height="30" as="geometry"/>
                </mxCell>
                <mxCell id="54" value="0.7264.." style="rounded=0;whiteSpace=wrap;html=1;fontSize=14;" vertex="1" parent="1">
                    <mxGeometry x="873" y="602" width="60" height="30" as="geometry"/>
                </mxCell>
                <mxCell id="55" value="0.1553" style="rounded=0;whiteSpace=wrap;html=1;fontSize=14;" vertex="1" parent="1">
                    <mxGeometry x="933" y="602" width="60" height="30" as="geometry"/>
                </mxCell>
                <mxCell id="56" value="0.9405.." style="rounded=0;whiteSpace=wrap;html=1;fontSize=14;" vertex="1" parent="1">
                    <mxGeometry x="993" y="602" width="60" height="30" as="geometry"/>
                </mxCell>
                <mxCell id="57" value="...." style="rounded=0;whiteSpace=wrap;html=1;fontSize=14;" vertex="1" parent="1">
                    <mxGeometry x="1053" y="602" width="53" height="30" as="geometry"/>
                </mxCell>
                <mxCell id="59" value="" style="endArrow=none;html=1;entryX=0;entryY=1;entryDx=0;entryDy=0;exitX=0;exitY=0;exitDx=0;exitDy=0;" edge="1" parent="1" source="4" target="2">
                    <mxGeometry width="50" height="50" relative="1" as="geometry">
                        <mxPoint x="49" y="520" as="sourcePoint"/>
                        <mxPoint x="99" y="470" as="targetPoint"/>
                    </mxGeometry>
                </mxCell>
                <mxCell id="60" value="" style="endArrow=none;html=1;entryX=1;entryY=1;entryDx=0;entryDy=0;exitX=1;exitY=0;exitDx=0;exitDy=0;" edge="1" parent="1" source="10" target="2">
                    <mxGeometry width="50" height="50" relative="1" as="geometry">
                        <mxPoint x="333" y="540" as="sourcePoint"/>
                        <mxPoint x="83" y="470" as="targetPoint"/>
                    </mxGeometry>
                </mxCell>
                <mxCell id="61" value="" style="endArrow=none;html=1;entryX=0.981;entryY=0.989;entryDx=0;entryDy=0;entryPerimeter=0;exitX=1;exitY=0;exitDx=0;exitDy=0;" edge="1" parent="1" source="10" target="11">
                    <mxGeometry width="50" height="50" relative="1" as="geometry">
                        <mxPoint x="343" y="550" as="sourcePoint"/>
                        <mxPoint x="203" y="470" as="targetPoint"/>
                    </mxGeometry>
                </mxCell>
                <mxCell id="62" value="" style="endArrow=none;html=1;entryX=0;entryY=1;entryDx=0;entryDy=0;exitX=0;exitY=0;exitDx=0;exitDy=0;" edge="1" parent="1" source="4" target="11">
                    <mxGeometry width="50" height="50" relative="1" as="geometry">
                        <mxPoint x="103" y="540" as="sourcePoint"/>
                        <mxPoint x="253" y="450" as="targetPoint"/>
                    </mxGeometry>
                </mxCell>
                <mxCell id="65" style="edgeStyle=none;html=1;exitX=0;exitY=1;exitDx=0;exitDy=0;entryX=0;entryY=0;entryDx=0;entryDy=0;endArrow=none;endFill=0;" edge="1" parent="1" source="64" target="14">
                    <mxGeometry relative="1" as="geometry"/>
                </mxCell>
                <mxCell id="64" value="&lt;font style=&quot;font-size: 14px;&quot;&gt;&lt;b&gt;Post Vector&lt;/b&gt;&lt;/font&gt;" style="rounded=0;whiteSpace=wrap;html=1;labelBackgroundColor=none;fillColor=#d5e8d4;strokeColor=#82b366;" vertex="1" parent="1">
                    <mxGeometry x="683" y="510" width="120" height="30" as="geometry"/>
                </mxCell>
                <mxCell id="66" style="edgeStyle=none;html=1;exitX=1;exitY=1;exitDx=0;exitDy=0;entryX=1;entryY=0;entryDx=0;entryDy=0;endArrow=none;endFill=0;" edge="1" parent="1" source="64" target="20">
                    <mxGeometry relative="1" as="geometry">
                        <mxPoint x="693" y="550" as="sourcePoint"/>
                        <mxPoint x="383" y="612" as="targetPoint"/>
                    </mxGeometry>
                </mxCell>
                <mxCell id="67" style="edgeStyle=none;html=1;exitX=1;exitY=1;exitDx=0;exitDy=0;entryX=1;entryY=0;entryDx=0;entryDy=0;endArrow=none;endFill=0;" edge="1" parent="1" source="64" target="39">
                    <mxGeometry relative="1" as="geometry">
                        <mxPoint x="813" y="550" as="sourcePoint"/>
                        <mxPoint x="618" y="612" as="targetPoint"/>
                    </mxGeometry>
                </mxCell>
                <mxCell id="69" style="edgeStyle=none;html=1;exitX=0;exitY=1;exitDx=0;exitDy=0;entryX=0;entryY=0;entryDx=0;entryDy=0;endArrow=none;endFill=0;" edge="1" parent="1" source="64" target="33">
                    <mxGeometry relative="1" as="geometry">
                        <mxPoint x="813" y="550" as="sourcePoint"/>
                        <mxPoint x="866" y="612" as="targetPoint"/>
                    </mxGeometry>
                </mxCell>
                <mxCell id="70" style="edgeStyle=none;html=1;entryX=0;entryY=0;entryDx=0;entryDy=0;endArrow=none;endFill=0;exitX=0;exitY=1;exitDx=0;exitDy=0;" edge="1" parent="1" source="64" target="54">
                    <mxGeometry relative="1" as="geometry">
                        <mxPoint x="803" y="540" as="sourcePoint"/>
                        <mxPoint x="823" y="612" as="targetPoint"/>
                    </mxGeometry>
                </mxCell>
                <mxCell id="71" style="edgeStyle=none;html=1;entryX=1;entryY=0;entryDx=0;entryDy=0;endArrow=none;endFill=0;exitX=1;exitY=1;exitDx=0;exitDy=0;" edge="1" parent="1" source="64" target="57">
                    <mxGeometry relative="1" as="geometry">
                        <mxPoint x="823" y="540" as="sourcePoint"/>
                        <mxPoint x="883" y="612" as="targetPoint"/>
                    </mxGeometry>
                </mxCell>
                <mxCell id="73" value="" style="endArrow=none;html=1;entryX=0;entryY=1;entryDx=0;entryDy=0;exitX=0;exitY=0;exitDx=0;exitDy=0;" edge="1" parent="1" source="64" target="30">
                    <mxGeometry width="50" height="50" relative="1" as="geometry">
                        <mxPoint x="620" y="531" as="sourcePoint"/>
                        <mxPoint x="594" y="450" as="targetPoint"/>
                    </mxGeometry>
                </mxCell>
                <mxCell id="74" value="" style="endArrow=none;html=1;entryX=1;entryY=1;entryDx=0;entryDy=0;exitX=1;exitY=0;exitDx=0;exitDy=0;" edge="1" parent="1" source="64" target="30">
                    <mxGeometry width="50" height="50" relative="1" as="geometry">
                        <mxPoint x="855" y="531" as="sourcePoint"/>
                        <mxPoint x="714" y="450" as="targetPoint"/>
                    </mxGeometry>
                </mxCell>
                <mxCell id="75" value="" style="endArrow=none;html=1;entryX=1;entryY=1;entryDx=0;entryDy=0;exitX=1;exitY=0;exitDx=0;exitDy=0;" edge="1" parent="1" source="64" target="31">
                    <mxGeometry width="50" height="50" relative="1" as="geometry">
                        <mxPoint x="855" y="531" as="sourcePoint"/>
                        <mxPoint x="892" y="450" as="targetPoint"/>
                    </mxGeometry>
                </mxCell>
                <mxCell id="76" value="" style="endArrow=none;html=1;entryX=0;entryY=1;entryDx=0;entryDy=0;exitX=0;exitY=0;exitDx=0;exitDy=0;" edge="1" parent="1" source="64" target="31">
                    <mxGeometry width="50" height="50" relative="1" as="geometry">
                        <mxPoint x="620" y="531" as="sourcePoint"/>
                        <mxPoint x="774" y="450" as="targetPoint"/>
                    </mxGeometry>
                </mxCell>
                <mxCell id="87" style="edgeStyle=none;html=1;exitX=0.5;exitY=0;exitDx=0;exitDy=0;entryX=0.5;entryY=1;entryDx=0;entryDy=0;" edge="1" parent="1" source="77" target="78">
                    <mxGeometry relative="1" as="geometry"/>
                </mxCell>
                <mxCell id="77" value="&lt;font style=&quot;font-size: 14px;&quot;&gt;&lt;b&gt;MLP Layer 1&lt;/b&gt;&lt;/font&gt;" style="rounded=0;whiteSpace=wrap;html=1;labelBackgroundColor=none;fillColor=#fff2cc;strokeColor=#d6b656;" vertex="1" parent="1">
                    <mxGeometry x="608" y="330" width="290" height="30" as="geometry"/>
                </mxCell>
                <mxCell id="88" style="edgeStyle=none;html=1;exitX=0.5;exitY=0;exitDx=0;exitDy=0;entryX=0.5;entryY=1;entryDx=0;entryDy=0;" edge="1" parent="1" source="78" target="79">
                    <mxGeometry relative="1" as="geometry"/>
                </mxCell>
                <mxCell id="78" value="&lt;font style=&quot;font-size: 14px;&quot;&gt;&lt;b&gt;MLP Layer 2&lt;/b&gt;&lt;/font&gt;" style="rounded=0;whiteSpace=wrap;html=1;labelBackgroundColor=none;fillColor=#fff2cc;strokeColor=#d6b656;" vertex="1" parent="1">
                    <mxGeometry x="643" y="280" width="220" height="30" as="geometry"/>
                </mxCell>
                <mxCell id="89" style="edgeStyle=none;html=1;exitX=0.5;exitY=0;exitDx=0;exitDy=0;entryX=0.5;entryY=1;entryDx=0;entryDy=0;" edge="1" parent="1" source="79" target="82">
                    <mxGeometry relative="1" as="geometry"/>
                </mxCell>
                <mxCell id="79" value="&lt;font style=&quot;font-size: 14px;&quot;&gt;&lt;b&gt;MLP Layer 4&lt;/b&gt;&lt;/font&gt;" style="rounded=0;whiteSpace=wrap;html=1;labelBackgroundColor=none;fillColor=#fff2cc;strokeColor=#d6b656;" vertex="1" parent="1">
                    <mxGeometry x="698" y="210" width="110" height="30" as="geometry"/>
                </mxCell>
                <mxCell id="90" style="edgeStyle=none;html=1;exitX=0.5;exitY=0;exitDx=0;exitDy=0;entryX=0.5;entryY=1;entryDx=0;entryDy=0;" edge="1" parent="1" source="81" target="82">
                    <mxGeometry relative="1" as="geometry"/>
                </mxCell>
                <mxCell id="81" value="&lt;font style=&quot;font-size: 14px;&quot;&gt;&lt;b&gt;GMF Layer&lt;/b&gt;&lt;/font&gt;" style="rounded=0;whiteSpace=wrap;html=1;labelBackgroundColor=none;fillColor=#fff2cc;strokeColor=#d6b656;" vertex="1" parent="1">
                    <mxGeometry x="213" y="270" width="220" height="30" as="geometry"/>
                </mxCell>
                <mxCell id="114" style="edgeStyle=none;html=1;exitX=0.25;exitY=0;exitDx=0;exitDy=0;entryX=0.5;entryY=1;entryDx=0;entryDy=0;" edge="1" parent="1" source="82" target="91">
                    <mxGeometry relative="1" as="geometry"/>
                </mxCell>
                <mxCell id="115" style="edgeStyle=none;html=1;exitX=0;exitY=0;exitDx=0;exitDy=0;entryX=0.5;entryY=1;entryDx=0;entryDy=0;" edge="1" parent="1" source="82" target="91">
                    <mxGeometry relative="1" as="geometry"/>
                </mxCell>
                <mxCell id="116" style="edgeStyle=none;html=1;exitX=0.75;exitY=0;exitDx=0;exitDy=0;entryX=0.5;entryY=1;entryDx=0;entryDy=0;" edge="1" parent="1" source="82" target="91">
                    <mxGeometry relative="1" as="geometry">
                        <mxPoint x="543" y="110" as="targetPoint"/>
                    </mxGeometry>
                </mxCell>
                <mxCell id="117" style="edgeStyle=none;html=1;exitX=1;exitY=0;exitDx=0;exitDy=0;entryX=0.5;entryY=1;entryDx=0;entryDy=0;" edge="1" parent="1" source="82" target="91">
                    <mxGeometry relative="1" as="geometry"/>
                </mxCell>
                <mxCell id="82" value="&lt;font style=&quot;font-size: 14px;&quot;&gt;&lt;b&gt;NeuMF Layer&lt;/b&gt;&lt;/font&gt;" style="rounded=0;whiteSpace=wrap;html=1;labelBackgroundColor=none;fillColor=#fff2cc;strokeColor=#d6b656;" vertex="1" parent="1">
                    <mxGeometry x="399.5" y="140" width="290" height="30" as="geometry"/>
                </mxCell>
                <mxCell id="119" style="edgeStyle=none;html=1;exitX=1;exitY=0.5;exitDx=0;exitDy=0;startArrow=classic;startFill=1;" edge="1" parent="1" source="91" target="92">
                    <mxGeometry relative="1" as="geometry"/>
                </mxCell>
                <mxCell id="91" value="&lt;span&gt;&lt;font style=&quot;font-size: 14px;&quot;&gt;$$\mathbf{\hat{y}_{ui}}$$&lt;/font&gt;&lt;/span&gt;" style="ellipse;whiteSpace=wrap;html=1;aspect=fixed;fillColor=#f8cecc;strokeColor=#b85450;fontStyle=1" vertex="1" parent="1">
                    <mxGeometry x="524.5" y="60" width="40" height="40" as="geometry"/>
                </mxCell>
                <mxCell id="92" value="&lt;span&gt;&lt;font style=&quot;font-size: 14px;&quot;&gt;$$\mathbf{y_{ui}}$$&lt;/font&gt;&lt;/span&gt;" style="ellipse;whiteSpace=wrap;html=1;aspect=fixed;fontStyle=1" vertex="1" parent="1">
                    <mxGeometry x="753" y="60" width="40" height="40" as="geometry"/>
                </mxCell>
                <mxCell id="98" value="" style="group" vertex="1" connectable="0" parent="1">
                    <mxGeometry x="161" y="580" width="90" height="30" as="geometry"/>
                </mxCell>
                <mxCell id="96" value="&lt;b&gt;&lt;font&gt;User Id&lt;/font&gt;&lt;/b&gt;" style="text;html=1;align=center;verticalAlign=middle;whiteSpace=wrap;rounded=0;fontSize=14;" vertex="1" parent="98">
                    <mxGeometry width="60" height="30" as="geometry"/>
                </mxCell>
                <mxCell id="97" value="&lt;font style=&quot;font-size: 14px;&quot;&gt;$$\mathbf{u}$$&lt;/font&gt;" style="text;html=1;align=center;verticalAlign=middle;whiteSpace=wrap;rounded=0;" vertex="1" parent="98">
                    <mxGeometry x="40" y="-1" width="60" height="30" as="geometry"/>
                </mxCell>
                <mxCell id="99" value="" style="group" vertex="1" connectable="0" parent="1">
                    <mxGeometry x="436" y="640" width="90" height="30" as="geometry"/>
                </mxCell>
                <mxCell id="100" value="&lt;span style=&quot;font-size: 14px;&quot;&gt;&lt;b&gt;Post Id&lt;/b&gt;&lt;/span&gt;" style="text;html=1;align=center;verticalAlign=middle;whiteSpace=wrap;rounded=0;" vertex="1" parent="99">
                    <mxGeometry width="60" height="30" as="geometry"/>
                </mxCell>
                <mxCell id="101" value="&lt;font style=&quot;font-size: 14px;&quot;&gt;$$\mathbf{i}$$&lt;/font&gt;" style="text;html=1;align=center;verticalAlign=middle;whiteSpace=wrap;rounded=0;" vertex="1" parent="99">
                    <mxGeometry x="37" width="60" height="30" as="geometry"/>
                </mxCell>
                <mxCell id="102" value="" style="group" vertex="1" connectable="0" parent="1">
                    <mxGeometry x="708" y="640" width="110" height="30" as="geometry"/>
                </mxCell>
                <mxCell id="103" value="&lt;span style=&quot;font-size: 14px;&quot;&gt;&lt;b&gt;Image Embedding Vector&lt;/b&gt;&lt;/span&gt;" style="text;html=1;align=center;verticalAlign=middle;whiteSpace=wrap;rounded=0;" vertex="1" parent="102">
                    <mxGeometry x="-57.5" width="180" height="30" as="geometry"/>
                </mxCell>
                <mxCell id="105" value="&lt;span style=&quot;font-size: 14px;&quot;&gt;&lt;b&gt;Caption Embedding Vector&lt;/b&gt;&lt;/span&gt;" style="text;html=1;align=center;verticalAlign=middle;whiteSpace=wrap;rounded=0;" vertex="1" parent="1">
                    <mxGeometry x="898" y="640" width="190" height="30" as="geometry"/>
                </mxCell>
                <mxCell id="106" value="&lt;span style=&quot;font-size: 14px;&quot;&gt;&lt;b&gt;&lt;i&gt;Concatenation&lt;/i&gt;&lt;/b&gt;&lt;/span&gt;" style="text;html=1;align=center;verticalAlign=middle;whiteSpace=wrap;rounded=0;" vertex="1" parent="1">
                    <mxGeometry x="653" y="571" width="180" height="30" as="geometry"/>
                </mxCell>
                <mxCell id="107" value="&lt;span style=&quot;font-size: 14px;&quot;&gt;&lt;b&gt;&lt;i&gt;Concatenation&lt;/i&gt;&lt;/b&gt;&lt;/span&gt;" style="text;html=1;align=center;verticalAlign=middle;whiteSpace=wrap;rounded=0;" vertex="1" parent="1">
                    <mxGeometry x="653" y="384" width="180" height="30" as="geometry"/>
                </mxCell>
                <mxCell id="108" value="&lt;span style=&quot;font-size: 14px;&quot;&gt;&lt;b&gt;&lt;i&gt;Embedding&lt;/i&gt;&lt;/b&gt;&lt;/span&gt;" style="text;html=1;align=center;verticalAlign=middle;whiteSpace=wrap;rounded=0;" vertex="1" parent="1">
                    <mxGeometry x="126.5" y="490" width="180" height="30" as="geometry"/>
                </mxCell>
                <mxCell id="109" value="&lt;span style=&quot;font-size: 14px;&quot;&gt;&lt;b&gt;&lt;i&gt;Embedding&lt;/i&gt;&lt;/b&gt;&lt;/span&gt;" style="text;html=1;align=center;verticalAlign=middle;whiteSpace=wrap;rounded=0;" vertex="1" parent="1">
                    <mxGeometry x="650.5" y="440" width="180" height="30" as="geometry"/>
                </mxCell>
                <mxCell id="110" value="&lt;span style=&quot;font-size: 14px;&quot;&gt;&lt;b&gt;&lt;i&gt;Element-wise&lt;/i&gt;&lt;/b&gt;&lt;/span&gt;&lt;div&gt;&lt;span style=&quot;font-size: 14px;&quot;&gt;&lt;b&gt;&lt;i&gt;Product&lt;/i&gt;&lt;/b&gt;&lt;/span&gt;&lt;/div&gt;" style="text;html=1;align=center;verticalAlign=middle;whiteSpace=wrap;rounded=0;" vertex="1" parent="1">
                    <mxGeometry x="243" y="330" width="180" height="30" as="geometry"/>
                </mxCell>
                <mxCell id="111" value="&lt;span style=&quot;font-size: 14px;&quot;&gt;&lt;b&gt;&lt;i&gt;ReLU&lt;/i&gt;&lt;/b&gt;&lt;/span&gt;" style="text;html=1;align=center;verticalAlign=middle;whiteSpace=wrap;rounded=0;" vertex="1" parent="1">
                    <mxGeometry x="707" y="305" width="180" height="30" as="geometry"/>
                </mxCell>
                <mxCell id="112" value="&lt;span style=&quot;font-size: 14px;&quot;&gt;&lt;b&gt;&lt;i&gt;ReLU&lt;/i&gt;&lt;/b&gt;&lt;/span&gt;" style="text;html=1;align=center;verticalAlign=middle;whiteSpace=wrap;rounded=0;" vertex="1" parent="1">
                    <mxGeometry x="707" y="244" width="180" height="30" as="geometry"/>
                </mxCell>
                <mxCell id="113" value="&lt;span style=&quot;font-size: 14px;&quot;&gt;&lt;b&gt;&lt;i&gt;Concatenation&lt;/i&gt;&lt;/b&gt;&lt;/span&gt;" style="text;html=1;align=center;verticalAlign=middle;whiteSpace=wrap;rounded=0;" vertex="1" parent="1">
                    <mxGeometry x="463" y="190" width="180" height="30" as="geometry"/>
                </mxCell>
                <mxCell id="118" value="&lt;span style=&quot;font-size: 14px;&quot;&gt;&lt;b&gt;&lt;i&gt;$$\mathbf{\sigma}$$&lt;/i&gt;&lt;/b&gt;&lt;/span&gt;" style="text;html=1;align=center;verticalAlign=middle;whiteSpace=wrap;rounded=0;" vertex="1" parent="1">
                    <mxGeometry x="454.5" y="108" width="180" height="30" as="geometry"/>
                </mxCell>
                <mxCell id="120" value="&lt;span style=&quot;font-size: 14px;&quot;&gt;&lt;b&gt;Training&lt;/b&gt;&lt;/span&gt;" style="text;html=1;align=center;verticalAlign=middle;whiteSpace=wrap;rounded=0;" vertex="1" parent="1">
                    <mxGeometry x="573" y="50" width="180" height="30" as="geometry"/>
                </mxCell>
                <mxCell id="121" value="&lt;span style=&quot;font-size: 14px;&quot;&gt;&lt;b&gt;Log loss&lt;/b&gt;&lt;/span&gt;" style="text;html=1;align=center;verticalAlign=middle;whiteSpace=wrap;rounded=0;" vertex="1" parent="1">
                    <mxGeometry x="573" y="78" width="180" height="30" as="geometry"/>
                </mxCell>
                <mxCell id="122" value="&lt;span style=&quot;font-size: 14px;&quot;&gt;&lt;b&gt;Score&lt;/b&gt;&lt;/span&gt;" style="text;html=1;align=center;verticalAlign=middle;whiteSpace=wrap;rounded=0;" vertex="1" parent="1">
                    <mxGeometry x="433" y="65" width="88.5" height="30" as="geometry"/>
                </mxCell>
                <mxCell id="123" value="&lt;span style=&quot;font-size: 14px;&quot;&gt;&lt;b&gt;Target&lt;/b&gt;&lt;/span&gt;" style="text;html=1;align=center;verticalAlign=middle;whiteSpace=wrap;rounded=0;" vertex="1" parent="1">
                    <mxGeometry x="784.5" y="65" width="88.5" height="30" as="geometry"/>
                </mxCell>
            </root>
        </mxGraphModel>
    </diagram>
</mxfile>